<?xml version="1.0" encoding="utf-8"?>
<!-- Generator: Adobe Illustrator 15.0.0, SVG Export Plug-In . SVG Version: 6.00 Build 0)  -->
<!DOCTYPE svg PUBLIC "-//W3C//DTD SVG 1.1//EN" "http://www.w3.org/Graphics/SVG/1.1/DTD/svg11.dtd">
<svg version="1.1" id="Calque_1" xmlns="http://www.w3.org/2000/svg" xmlns:xlink="http://www.w3.org/1999/xlink" x="0px" y="0px"
	 width="418px" height="407.204px" viewBox="0 0 418 407.204" enable-background="new 0 0 418 407.204" xml:space="preserve">
<rect x="29" y="2.206" fill="none" width="12.934" height="13.499"/>
<text transform="matrix(1 0 0 1 29 10.7979)" fill="#7B6A3C" font-family="'ArialMT'" font-size="12">A</text>
<rect x="47.5" y="2.206" fill="none" width="12.934" height="13.499"/>
<text transform="matrix(1 0 0 1 47.5 10.7979)" fill="#7B6A3C" font-family="'ArialMT'" font-size="12">B</text>
<rect x="1" y="26.706" fill="none" width="21" height="13"/>
<text transform="matrix(1 0 0 1 1 35.2979)" fill="#7B6A3C" font-family="'ArialMT'" font-size="12">19</text>
<rect x="0.5" y="45.706" fill="none" width="21" height="13"/>
<text transform="matrix(1 0 0 1 0.5 54.2979)" fill="#7B6A3C" font-family="'ArialMT'" font-size="12">18</text>
<rect x="0.5" y="64.706" fill="none" width="21" height="13"/>
<text transform="matrix(1 0 0 1 0.5 73.2979)" fill="#7B6A3C" font-family="'ArialMT'" font-size="12">17</text>
<rect y="83.206" fill="none" width="21" height="13"/>
<text transform="matrix(1 0 0 1 0 91.7979)" fill="#7B6A3C" font-family="'ArialMT'" font-size="12">16</text>
<rect y="102.206" fill="none" width="21" height="13"/>
<text transform="matrix(1 0 0 1 0 110.7979)" fill="#7B6A3C" font-family="'ArialMT'" font-size="12">15</text>
<rect y="121.706" fill="none" width="21" height="13"/>
<text transform="matrix(1 0 0 1 0 130.2979)" fill="#7B6A3C" font-family="'ArialMT'" font-size="12">14</text>
<rect x="0.5" y="140.706" fill="none" width="21" height="13"/>
<text transform="matrix(1 0 0 1 0.5 149.2979)" fill="#7B6A3C" font-family="'ArialMT'" font-size="12">13</text>
<rect x="1" y="160.206" fill="none" width="21" height="13"/>
<text transform="matrix(1 0 0 1 1 168.7979)" fill="#7B6A3C" font-family="'ArialMT'" font-size="12">12</text>
<rect x="1.5" y="178.706" fill="none" width="21" height="13"/>
<text transform="matrix(1 0 0 1 1.5 187.2979)" fill="#7B6A3C" font-family="'ArialMT'" font-size="12">11</text>
<rect x="1.5" y="197.206" fill="none" width="21" height="13"/>
<text transform="matrix(1 0 0 1 1.5 205.7979)" fill="#7B6A3C" font-family="'ArialMT'" font-size="12">10</text>
<rect x="5.5" y="216.206" fill="none" width="21" height="13"/>
<text transform="matrix(1 0 0 1 5.5 224.7979)" fill="#7B6A3C" font-family="'ArialMT'" font-size="12">9</text>
<rect x="5.5" y="235.706" fill="none" width="21" height="13"/>
<text transform="matrix(1 0 0 1 5.5 244.2979)" fill="#7B6A3C" font-family="'ArialMT'" font-size="12">8</text>
<rect x="5.5" y="254.206" fill="none" width="21" height="13"/>
<text transform="matrix(1 0 0 1 5.5 262.7979)" fill="#7B6A3C" font-family="'ArialMT'" font-size="12">7</text>
<rect x="5.5" y="273.706" fill="none" width="21" height="13"/>
<text transform="matrix(1 0 0 1 5.5 282.2979)" fill="#7B6A3C" font-family="'ArialMT'" font-size="12">6</text>
<rect x="5.5" y="292.706" fill="none" width="21" height="13"/>
<text transform="matrix(1 0 0 1 5.5 301.2979)" fill="#7B6A3C" font-family="'ArialMT'" font-size="12">5</text>
<rect x="5.5" y="311.706" fill="none" width="21" height="13"/>
<text transform="matrix(1 0 0 1 5.5 320.2979)" fill="#7B6A3C" font-family="'ArialMT'" font-size="12">4</text>
<rect x="5.5" y="330.206" fill="none" width="21" height="13"/>
<text transform="matrix(1 0 0 1 5.5 338.7979)" fill="#7B6A3C" font-family="'ArialMT'" font-size="12">3</text>
<rect x="5.5" y="349.206" fill="none" width="21" height="13"/>
<text transform="matrix(1 0 0 1 5.5 357.7979)" fill="#7B6A3C" font-family="'ArialMT'" font-size="12">2</text>
<rect x="5.5" y="368.206" fill="none" width="21" height="13"/>
<text transform="matrix(1 0 0 1 5.5 376.7979)" fill="#7B6A3C" font-family="'ArialMT'" font-size="12">1</text>
<rect x="394" y="26.706" fill="none" width="21" height="13"/>
<text transform="matrix(1 0 0 1 394 35.2979)" fill="#7B6A3C" font-family="'ArialMT'" font-size="12">19</text>
<rect x="393.5" y="45.706" fill="none" width="21" height="13"/>
<text transform="matrix(1 0 0 1 393.5 54.2979)" fill="#7B6A3C" font-family="'ArialMT'" font-size="12">18</text>
<rect x="393.5" y="64.706" fill="none" width="21" height="13"/>
<text transform="matrix(1 0 0 1 393.5 73.2979)" fill="#7B6A3C" font-family="'ArialMT'" font-size="12">17</text>
<rect x="393" y="83.206" fill="none" width="21" height="13"/>
<text transform="matrix(1 0 0 1 393 91.7979)" fill="#7B6A3C" font-family="'ArialMT'" font-size="12">16</text>
<rect x="393" y="102.206" fill="none" width="21" height="13"/>
<text transform="matrix(1 0 0 1 393 110.7979)" fill="#7B6A3C" font-family="'ArialMT'" font-size="12">15</text>
<rect x="393" y="121.706" fill="none" width="21" height="13"/>
<text transform="matrix(1 0 0 1 393 130.2979)" fill="#7B6A3C" font-family="'ArialMT'" font-size="12">14</text>
<rect x="393.5" y="140.706" fill="none" width="21" height="13"/>
<text transform="matrix(1 0 0 1 393.5 149.2979)" fill="#7B6A3C" font-family="'ArialMT'" font-size="12">13</text>
<rect x="394" y="160.206" fill="none" width="21" height="13"/>
<text transform="matrix(1 0 0 1 394 168.7979)" fill="#7B6A3C" font-family="'ArialMT'" font-size="12">12</text>
<rect x="394.5" y="178.706" fill="none" width="21" height="13"/>
<text transform="matrix(1 0 0 1 394.5 187.2979)" fill="#7B6A3C" font-family="'ArialMT'" font-size="12">11</text>
<rect x="394.5" y="197.206" fill="none" width="21" height="13"/>
<text transform="matrix(1 0 0 1 394.5 205.7979)" fill="#7B6A3C" font-family="'ArialMT'" font-size="12">10</text>
<rect x="398.5" y="216.206" fill="none" width="21" height="13"/>
<text transform="matrix(1 0 0 1 398.5 224.7979)" fill="#7B6A3C" font-family="'ArialMT'" font-size="12">9</text>
<rect x="398.5" y="235.706" fill="none" width="21" height="13"/>
<text transform="matrix(1 0 0 1 398.5 244.2979)" fill="#7B6A3C" font-family="'ArialMT'" font-size="12">8</text>
<rect x="398.5" y="254.206" fill="none" width="21" height="13"/>
<text transform="matrix(1 0 0 1 398.5 262.7979)" fill="#7B6A3C" font-family="'ArialMT'" font-size="12">7</text>
<rect x="398.5" y="273.706" fill="none" width="21" height="13"/>
<text transform="matrix(1 0 0 1 398.5 282.2979)" fill="#7B6A3C" font-family="'ArialMT'" font-size="12">6</text>
<rect x="398.5" y="292.706" fill="none" width="21" height="13"/>
<text transform="matrix(1 0 0 1 398.5 301.2979)" fill="#7B6A3C" font-family="'ArialMT'" font-size="12">5</text>
<rect x="398.5" y="311.706" fill="none" width="21" height="13"/>
<text transform="matrix(1 0 0 1 398.5 320.2979)" fill="#7B6A3C" font-family="'ArialMT'" font-size="12">4</text>
<rect x="398.5" y="330.206" fill="none" width="21" height="13"/>
<text transform="matrix(1 0 0 1 398.5 338.7979)" fill="#7B6A3C" font-family="'ArialMT'" font-size="12">3</text>
<rect x="398.5" y="349.206" fill="none" width="21" height="13"/>
<text transform="matrix(1 0 0 1 398.5 357.7979)" fill="#7B6A3C" font-family="'ArialMT'" font-size="12">2</text>
<rect x="398.5" y="368.206" fill="none" width="21" height="13"/>
<text transform="matrix(1 0 0 1 398.5 376.7979)" fill="#7B6A3C" font-family="'ArialMT'" font-size="12">1</text>
<rect x="67" y="2.206" fill="none" width="12.934" height="13.499"/>
<text transform="matrix(1 0 0 1 67 10.7979)" fill="#7B6A3C" font-family="'ArialMT'" font-size="12">C</text>
<rect x="85.5" y="2.206" fill="none" width="12.934" height="13.499"/>
<text transform="matrix(1 0 0 1 85.5 10.7979)" fill="#7B6A3C" font-family="'ArialMT'" font-size="12">D</text>
<rect x="85.5" y="2.206" fill="none" width="12.934" height="13.499"/>
<rect x="104.5" y="2.206" fill="none" width="12.934" height="13.499"/>
<text transform="matrix(1 0 0 1 104.5 10.7979)" fill="#7B6A3C" font-family="'ArialMT'" font-size="12">E</text>
<rect x="123" y="2.206" fill="none" width="12.934" height="13.499"/>
<text transform="matrix(1 0 0 1 123 10.7979)" fill="#7B6A3C" font-family="'ArialMT'" font-size="12">F</text>
<rect x="142.5" y="2.206" fill="none" width="12.934" height="13.499"/>
<text transform="matrix(1 0 0 1 142.5 10.7979)" fill="#7B6A3C" font-family="'ArialMT'" font-size="12">G</text>
<rect x="162" y="2.706" fill="none" width="12.934" height="13.499"/>
<text transform="matrix(1 0 0 1 162 11.2979)" fill="#7B6A3C" font-family="'ArialMT'" font-size="12">H</text>
<rect x="181" y="2.206" fill="none" width="12.934" height="13.499"/>
<text transform="matrix(1 0 0 1 181 10.7979)" fill="#7B6A3C" font-family="'ArialMT'" font-size="12">J</text>
<rect x="199.5" y="2.206" fill="none" width="12.934" height="13.499"/>
<text transform="matrix(1 0 0 1 199.5 10.7979)" fill="#7B6A3C" font-family="'ArialMT'" font-size="12">K</text>
<rect x="219" y="2.206" fill="none" width="12.934" height="13.499"/>
<text transform="matrix(1 0 0 1 219 10.7979)" fill="#7B6A3C" font-family="'ArialMT'" font-size="12">L</text>
<rect x="237" y="2.206" fill="none" width="12.934" height="13.499"/>
<text transform="matrix(1 0 0 1 237 10.7979)" fill="#7B6A3C" font-family="'ArialMT'" font-size="12">M</text>
<rect x="237.5" y="2.206" fill="none" width="12.934" height="13.499"/>
<rect x="256.5" y="2.206" fill="none" width="12.934" height="13.499"/>
<text transform="matrix(1 0 0 1 256.5 10.7979)" fill="#7B6A3C" font-family="'ArialMT'" font-size="12">N</text>
<rect x="275" y="2.206" fill="none" width="12.934" height="13.499"/>
<text transform="matrix(1 0 0 1 275 10.7979)" fill="#7B6A3C" font-family="'ArialMT'" font-size="12">O</text>
<rect x="294.5" y="2.206" fill="none" width="12.934" height="13.499"/>
<text transform="matrix(1 0 0 1 294.5 10.7979)" fill="#7B6A3C" font-family="'ArialMT'" font-size="12">P</text>
<rect x="313.5" y="2.335" fill="none" width="12.934" height="13.499"/>
<text transform="matrix(1 0 0 1 313.5 10.9268)" fill="#7B6A3C" font-family="'ArialMT'" font-size="12">Q</text>
<rect x="332.5" y="2.206" fill="none" width="12.934" height="13.499"/>
<text transform="matrix(1 0 0 1 332.5 10.7979)" fill="#7B6A3C" font-family="'ArialMT'" font-size="12">R</text>
<rect x="351.5" y="2.206" fill="none" width="12.934" height="13.499"/>
<text transform="matrix(1 0 0 1 351.5 10.7979)" fill="#7B6A3C" font-family="'ArialMT'" font-size="12">S</text>
<rect x="371" y="2.206" fill="none" width="12.934" height="13.499"/>
<text transform="matrix(1 0 0 1 371 10.7979)" fill="#7B6A3C" font-family="'ArialMT'" font-size="12">T</text>
<g>
	<rect x="29" y="392.206" fill="none" width="12.934" height="13.498"/>
	<text transform="matrix(1 0 0 1 29 400.7979)" fill="#7B6A3C" font-family="'ArialMT'" font-size="12">A</text>
	<rect x="47.5" y="392.206" fill="none" width="12.934" height="13.498"/>
	<text transform="matrix(1 0 0 1 47.5 400.7979)" fill="#7B6A3C" font-family="'ArialMT'" font-size="12">B</text>
	<rect x="67" y="392.206" fill="none" width="12.934" height="13.498"/>
	<text transform="matrix(1 0 0 1 67 400.7979)" fill="#7B6A3C" font-family="'ArialMT'" font-size="12">C</text>
	<rect x="85.5" y="392.206" fill="none" width="12.934" height="13.498"/>
	<text transform="matrix(1 0 0 1 85.5 400.7979)" fill="#7B6A3C" font-family="'ArialMT'" font-size="12">D</text>
	<rect x="85.5" y="392.206" fill="none" width="12.934" height="13.498"/>
	<rect x="104.5" y="392.206" fill="none" width="12.934" height="13.498"/>
	<text transform="matrix(1 0 0 1 104.5 400.7979)" fill="#7B6A3C" font-family="'ArialMT'" font-size="12">E</text>
	<rect x="123" y="392.206" fill="none" width="12.934" height="13.498"/>
	<text transform="matrix(1 0 0 1 123 400.7979)" fill="#7B6A3C" font-family="'ArialMT'" font-size="12">F</text>
	<rect x="142.5" y="392.206" fill="none" width="12.934" height="13.498"/>
	<text transform="matrix(1 0 0 1 142.5 400.7979)" fill="#7B6A3C" font-family="'ArialMT'" font-size="12">G</text>
	<rect x="162" y="392.706" fill="none" width="12.934" height="13.498"/>
	<text transform="matrix(1 0 0 1 162 401.2979)" fill="#7B6A3C" font-family="'ArialMT'" font-size="12">H</text>
	<rect x="181" y="392.206" fill="none" width="12.934" height="13.498"/>
	<text transform="matrix(1 0 0 1 181 400.7979)" fill="#7B6A3C" font-family="'ArialMT'" font-size="12">J</text>
	<rect x="199.5" y="392.206" fill="none" width="12.934" height="13.498"/>
	<text transform="matrix(1 0 0 1 199.5 400.7979)" fill="#7B6A3C" font-family="'ArialMT'" font-size="12">K</text>
	<rect x="219" y="392.206" fill="none" width="12.934" height="13.498"/>
	<text transform="matrix(1 0 0 1 219 400.7979)" fill="#7B6A3C" font-family="'ArialMT'" font-size="12">L</text>
	<rect x="237" y="392.206" fill="none" width="12.934" height="13.498"/>
	<text transform="matrix(1 0 0 1 237 400.7979)" fill="#7B6A3C" font-family="'ArialMT'" font-size="12">M</text>
	<rect x="237.5" y="392.206" fill="none" width="12.934" height="13.498"/>
	<rect x="256.5" y="392.206" fill="none" width="12.934" height="13.498"/>
	<text transform="matrix(1 0 0 1 256.5 400.7979)" fill="#7B6A3C" font-family="'ArialMT'" font-size="12">N</text>
	<rect x="275" y="392.206" fill="none" width="12.934" height="13.498"/>
	<text transform="matrix(1 0 0 1 275 400.7979)" fill="#7B6A3C" font-family="'ArialMT'" font-size="12">O</text>
	<rect x="294.5" y="392.206" fill="none" width="12.934" height="13.498"/>
	<text transform="matrix(1 0 0 1 294.5 400.7979)" fill="#7B6A3C" font-family="'ArialMT'" font-size="12">P</text>
	<rect x="313.5" y="392.335" fill="none" width="12.934" height="13.498"/>
	<text transform="matrix(1 0 0 1 313.5 400.9268)" fill="#7B6A3C" font-family="'ArialMT'" font-size="12">Q</text>
	<rect x="332.5" y="392.206" fill="none" width="12.934" height="13.498"/>
	<text transform="matrix(1 0 0 1 332.5 400.7979)" fill="#7B6A3C" font-family="'ArialMT'" font-size="12">R</text>
	<rect x="351.5" y="392.206" fill="none" width="12.934" height="13.498"/>
	<text transform="matrix(1 0 0 1 351.5 400.7979)" fill="#7B6A3C" font-family="'ArialMT'" font-size="12">S</text>
	<rect x="371" y="392.206" fill="none" width="12.934" height="13.498"/>
	<text transform="matrix(1 0 0 1 371 400.7979)" fill="#7B6A3C" font-family="'ArialMT'" font-size="12">T</text>
</g>
</svg>
